<?xml version="1.0" standalone="no"?>
<!DOCTYPE svg PUBLIC "-//W3C//DTD SVG 20010904//EN"
 "http://www.w3.org/TR/2001/REC-SVG-20010904/DTD/svg10.dtd">
<svg version="1.0" xmlns="http://www.w3.org/2000/svg"
 width="2064.000000pt" height="2064.000000pt" viewBox="0 0 2064.000000 2064.000000"
 preserveAspectRatio="xMidYMid meet">
<metadata>
Created by potrace 1.14, written by Peter Selinger 2001-2017
</metadata>
<g transform="translate(0.000000,2064.000000) scale(0.100000,-0.100000)"
fill="#000000" stroke="none">
<path d="M8078 16942 c-14 -3 -25 -31 -33 -89 -2 -12 -11 -57 -19 -100 -9 -43
-18 -89 -20 -103 -3 -14 -5 -25 -6 -25 -2 0 -7 -27 -13 -72 -3 -21 -10 -58
-16 -83 -5 -25 -13 -61 -16 -80 -3 -19 -8 -42 -10 -50 -2 -8 -6 -26 -9 -40
-18 -103 -34 -185 -36 -185 -1 0 -3 -9 -4 -20 -1 -11 -6 -38 -10 -60 -5 -22
-10 -51 -13 -65 -2 -14 -11 -59 -20 -100 -8 -41 -17 -86 -19 -100 -5 -27 -11
-60 -20 -100 -3 -14 -7 -36 -9 -50 -2 -14 -9 -47 -14 -73 -6 -27 -9 -53 -6
-58 4 -5 2 -9 -3 -9 -5 0 -9 -6 -9 -12 -1 -18 -11 -83 -13 -83 -3 0 -11 -40
-14 -70 -2 -16 -6 -37 -9 -45 -3 -8 -8 -32 -11 -52 -3 -21 -10 -57 -15 -80 -9
-40 -18 -85 -26 -133 -4 -20 -6 -31 -26 -132 -5 -28 -11 -61 -12 -72 -1 -12
-5 -21 -10 -21 -4 0 -6 -4 -3 -8 3 -5 -6 -62 -19 -128 -13 -65 -26 -132 -29
-149 -11 -58 -17 -90 -27 -135 -10 -46 -14 -69 -25 -130 -11 -60 -22 -115 -29
-150 -3 -14 -7 -36 -10 -50 -3 -14 -7 -36 -10 -50 -3 -14 -8 -40 -11 -59 -3
-18 -8 -43 -10 -55 -21 -93 -32 -162 -28 -168 3 -4 0 -8 -6 -8 -6 0 -11 -10
-10 -22 1 -13 1 -26 0 -30 -1 -5 -4 -12 -5 -18 -1 -5 -3 -11 -5 -12 -1 -2 -3
-19 -5 -38 -2 -19 -13 -79 -24 -133 -12 -54 -23 -110 -26 -125 -3 -15 -7 -38
-10 -52 -3 -14 -8 -36 -10 -50 -2 -14 -7 -36 -9 -50 -11 -49 -16 -75 -21 -105
-3 -16 -7 -41 -10 -55 -3 -14 -8 -36 -10 -50 -2 -14 -6 -36 -9 -50 -3 -14 -10
-47 -16 -75 -5 -27 -12 -61 -15 -75 -3 -14 -7 -36 -10 -50 -2 -14 -9 -50 -15
-80 -6 -30 -13 -64 -14 -75 -2 -11 -6 -29 -9 -40 -3 -11 -8 -36 -11 -55 -9
-55 -16 -94 -22 -113 -3 -10 -7 -30 -9 -45 -6 -47 -16 -96 -26 -134 -5 -20 -9
-40 -8 -45 1 -4 0 -15 -4 -23 -6 -16 -19 -81 -22 -115 -2 -11 -6 -33 -9 -50
-4 -16 -10 -43 -13 -60 -8 -46 -11 -60 -13 -60 -2 0 -3 -11 -13 -75 -2 -14 -9
-50 -15 -80 -14 -63 -20 -93 -27 -135 -3 -16 -7 -41 -10 -55 -6 -28 -33 -162
-41 -200 -3 -14 -7 -36 -9 -50 -5 -33 -14 -79 -20 -110 -5 -22 -37 -180 -50
-250 -7 -38 -14 -72 -20 -100 -3 -14 -8 -41 -11 -60 -3 -19 -8 -44 -12 -55 -3
-11 -6 -29 -7 -40 -1 -25 -15 -95 -22 -115 -3 -8 -7 -26 -8 -40 -1 -14 -3 -25
-5 -25 -1 0 -3 -9 -5 -20 -1 -11 -5 -33 -9 -50 -4 -16 -9 -41 -11 -55 -2 -14
-9 -50 -15 -80 -6 -30 -13 -71 -16 -90 -8 -45 -12 -65 -14 -65 -1 0 -3 -9 -5
-20 -2 -11 -7 -36 -10 -55 -4 -19 -9 -46 -11 -60 -3 -14 -16 -81 -29 -150 -13
-69 -27 -136 -29 -150 -3 -14 -10 -50 -15 -80 -6 -30 -13 -66 -16 -80 -13 -68
-28 -141 -40 -200 -15 -68 -56 -281 -61 -315 -2 -11 -5 -31 -8 -45 -9 -38 -15
-71 -22 -110 -7 -35 -10 -52 -19 -92 -10 -44 -27 -133 -30 -158 -2 -14 -6 -37
-9 -52 -3 -16 -8 -39 -11 -53 -3 -14 -8 -37 -11 -52 -3 -16 -6 -36 -7 -45 -1
-10 -4 -18 -7 -18 -3 0 -5 -10 -6 -22 0 -13 -4 -43 -8 -68 -8 -47 -9 -49 -19
-90 -4 -14 -18 -86 -32 -160 -15 -74 -28 -144 -30 -155 -3 -10 -7 -37 -11 -59
-3 -22 -7 -43 -9 -46 -2 -3 -6 -25 -10 -50 -4 -25 -8 -47 -10 -50 -2 -3 -6
-26 -10 -50 -3 -25 -13 -74 -20 -110 -8 -36 -17 -78 -19 -95 -2 -16 -5 -30 -6
-30 -2 0 -9 -38 -14 -80 -3 -16 -5 -31 -6 -32 -2 -2 -4 -7 -5 -13 -1 -5 -3
-11 -5 -12 -1 -2 -3 -16 -5 -33 -2 -16 -6 -42 -9 -57 -13 -59 -17 -84 -21
-113 -2 -16 -7 -41 -10 -55 -4 -14 -8 -34 -10 -45 -2 -11 -7 -33 -10 -50 -3
-16 -8 -41 -11 -55 -8 -34 -14 -65 -18 -97 -2 -16 -6 -35 -9 -43 -3 -8 -8 -31
-11 -50 -3 -19 -8 -46 -11 -60 -2 -14 -7 -36 -10 -50 -2 -14 -7 -41 -10 -60
-3 -19 -10 -39 -15 -46 -6 -6 -7 -14 -4 -17 4 -3 1 -28 -5 -54 -6 -26 -13 -64
-16 -83 -3 -19 -8 -42 -10 -50 -2 -8 -6 -26 -9 -40 -2 -14 -18 -99 -36 -190
-17 -91 -33 -174 -35 -185 -1 -11 -5 -27 -8 -35 -3 -8 -8 -31 -11 -50 -3 -19
-8 -46 -11 -60 -3 -14 -8 -34 -10 -45 -17 -99 -23 -130 -25 -130 -1 0 -3 -13
-5 -30 -1 -16 -5 -41 -8 -55 -18 -68 -17 -81 6 -80 12 1 27 1 32 0 8 -1 158 0
220 1 6 0 26 0 45 0 19 -1 42 -1 50 -1 8 1 42 1 75 1 33 -1 68 -1 78 -1 16 1
71 1 100 1 6 0 36 -1 65 -2 29 -1 55 0 58 3 3 3 19 2 37 -2 18 -4 41 -4 52 0
11 4 24 5 28 3 5 -3 34 -4 65 -4 73 2 103 2 175 2 6 0 36 -1 65 -2 29 -1 54 0
57 3 3 3 26 2 50 -2 25 -4 48 -4 50 0 3 5 20 4 39 0 19 -4 40 -4 47 0 7 5 22
5 33 0 11 -4 32 -4 46 0 14 4 34 4 45 0 24 -8 57 -1 49 11 -3 5 -1 9 3 9 5 0
10 10 10 23 2 22 7 52 16 92 3 11 8 40 11 65 3 25 10 60 15 78 5 18 10 35 10
37 1 3 1 6 2 8 2 6 8 39 13 74 8 56 16 96 21 111 2 7 7 34 11 60 3 26 8 51 11
55 3 5 7 23 10 40 8 60 39 220 50 267 3 14 8 34 10 45 2 11 10 53 18 93 8 41
12 78 9 83 -3 5 -1 9 3 9 5 0 9 8 10 17 1 10 4 29 7 43 2 14 10 50 15 80 6 30
13 66 16 80 3 14 9 50 15 80 6 30 13 66 16 80 3 14 7 36 10 50 2 14 9 48 14
75 6 28 12 61 15 75 3 14 10 50 16 80 6 30 13 69 16 85 8 45 11 60 13 60 1 0
3 9 4 20 1 11 6 36 9 55 4 19 9 46 12 60 3 14 9 48 15 75 12 60 17 82 30 157
15 77 19 98 26 128 3 14 7 39 10 55 3 17 12 62 20 100 15 74 22 111 29 160 3
17 13 70 24 120 11 49 17 93 15 97 -3 5 -1 8 3 8 5 0 10 10 10 23 2 22 7 52
16 93 3 12 8 37 11 55 3 19 8 45 11 59 3 14 8 38 11 54 3 17 18 96 34 176 16
80 32 162 35 181 3 19 8 41 10 49 2 8 7 31 10 50 3 19 17 89 30 155 13 66 26
134 29 150 3 17 8 44 11 60 7 36 55 271 61 300 3 11 7 34 9 50 5 35 14 84 20
105 3 8 7 32 11 54 3 21 8 48 10 60 5 21 7 30 20 96 10 55 12 65 14 65 1 0 3
14 5 30 1 17 3 30 5 30 1 0 3 11 5 25 2 14 8 50 15 80 6 30 13 66 16 80 2 14
6 34 9 46 3 12 7 39 10 60 3 21 8 46 11 54 3 8 8 29 10 45 2 17 6 37 8 45 1 8
6 33 11 55 4 22 10 44 13 49 3 5 6 23 7 40 1 17 9 67 18 111 23 110 28 134 47
235 4 25 10 55 13 66 3 12 8 39 11 60 4 22 8 46 11 54 2 8 6 26 9 40 3 14 7
34 9 45 3 11 8 40 12 65 9 56 13 79 20 108 3 12 7 30 9 41 2 10 7 35 10 55 3
19 11 57 17 83 6 27 12 57 14 68 11 73 17 102 21 115 3 8 8 30 10 49 3 19 9
55 15 80 6 25 13 61 15 80 3 19 7 37 9 41 3 5 7 25 10 46 5 38 9 65 20 114 18
83 54 269 61 315 3 22 8 44 11 48 3 5 7 23 9 40 2 18 6 43 9 57 9 41 25 123
31 159 3 18 8 43 11 55 2 11 6 30 8 41 2 11 6 34 10 50 3 17 9 44 12 60 8 46
11 60 13 60 1 0 3 15 6 34 2 19 7 46 10 60 2 14 7 37 10 51 3 14 7 33 10 43 3
10 8 32 10 50 5 40 12 72 15 72 1 0 3 14 4 30 2 17 6 41 9 55 3 14 9 41 12 60
4 19 9 44 11 55 6 29 11 56 17 85 3 14 10 50 16 80 6 30 14 69 17 85 2 17 15
82 28 145 12 63 23 122 23 130 1 8 10 53 21 100 10 47 22 103 26 125 7 48 10
62 18 95 6 23 17 86 21 120 1 9 5 20 8 25 3 6 4 18 3 28 -2 9 0 17 4 17 4 0 7
10 8 23 1 12 4 33 7 47 3 13 8 42 12 65 3 22 7 45 8 50 1 6 5 16 10 23 4 7 6
16 3 18 -2 3 -1 22 4 42 5 20 12 52 15 71 2 19 9 53 14 78 6 24 13 60 16 79 3
20 8 45 10 55 11 51 20 96 28 139 3 14 10 50 16 80 6 30 13 71 16 90 3 19 8
38 9 41 2 3 7 28 11 55 3 27 8 52 10 55 2 4 6 24 10 45 3 22 14 79 25 128 10
48 16 92 14 96 -3 5 -1 12 5 15 6 4 10 14 9 23 -1 10 1 28 4 42 4 14 9 36 11
50 3 14 7 35 10 46 7 33 18 98 19 112 0 6 3 12 6 12 3 0 6 10 7 23 1 29 14
110 20 118 2 4 6 27 9 50 3 24 8 52 11 61 5 18 5 18 23 123 7 39 15 77 18 85
4 8 5 19 4 23 -1 5 3 25 8 45 5 20 11 50 13 67 l3 29 -776 1 c-426 0 -782 -1
-791 -3z"/>
</g>
</svg>
